<svg width="20" height="20" viewBox="0 0 20 20" fill="none" xmlns="http://www.w3.org/2000/svg">
<path fill-rule="evenodd" clip-rule="evenodd" d="M9.97803 2.54102C12.2169 2.54102 14.0291 4.36047 14.0291 6.60107C14.0291 7.9044 13.4146 9.06352 12.4609 9.80664C14.9226 10.795 16.6609 13.2075 16.661 16.0265C16.661 16.8219 16.0159 17.467 15.2205 17.467H4.73633C3.94093 17.467 3.2959 16.8219 3.2959 16.0265C3.296 13.2078 5.03333 10.7953 7.4943 9.80664C6.54126 9.0635 5.92774 7.90406 5.92773 6.60107C5.92773 4.36052 7.73923 2.54109 9.97803 2.54102ZM9.97803 10.6611C9.97287 10.6611 9.96772 10.6603 9.96256 10.6603C7.01735 10.6688 4.62904 13.0664 4.62891 16.0265C4.62891 16.0855 4.67731 16.134 4.73633 16.134H15.2205C15.2796 16.134 15.3271 16.0855 15.3271 16.0265C15.327 13.0663 12.9388 10.6687 9.99349 10.6603C9.98834 10.6603 9.98318 10.6611 9.97803 10.6611ZM9.97803 3.87402C8.47917 3.8741 7.26074 5.09333 7.26074 6.60107C7.26075 8.10307 8.46993 9.31801 9.96094 9.32731H9.9943C11.4858 9.31852 12.6953 8.1034 12.6953 6.60107C12.6953 5.09328 11.477 3.87402 9.97803 3.87402Z" fill="#232527"/>
</svg>
